<svg width="282" height="282" viewBox="0 0 282 282" fill="none" xmlns="http://www.w3.org/2000/svg">
<path fill-rule="evenodd" clip-rule="evenodd" d="M135.937 255.308L137.245 256.616L137.103 255.421L135.937 255.308ZM136.996 254.516L109.37 22.0003L105.038 26.3325C93.4151 40.6659 62.0916 80.911 57.215 104.103C45.5123 159.759 127.053 244.44 136.996 254.516ZM174.9 225.972L143.661 257.211C142.348 242.078 137.501 170.819 157.364 120.756C161.221 111.034 167.771 98.5515 174.321 86.9505L194.282 106.912L209.973 122.602C228.833 141.462 228.833 172.04 209.973 190.9L207.204 193.669L174.9 225.972Z" fill="url(#paint0_linear_670_24)"/>
<defs>
<linearGradient id="paint0_linear_670_24" x1="57.6854" y1="73.6853" x2="192.436" y2="208.436" gradientUnits="userSpaceOnUse">
<stop stop-color="#FEE440"/>
<stop offset="1" stop-color="#FFAC0C"/>
</linearGradient>
</defs>
</svg>
